<svg xmlns="http://www.w3.org/2000/svg" viewBox="0 0 512 512" role="img" aria-labelledby="title">
  <title id="title">Podora</title>
  <rect width="512" height="512" rx="112" fill="#f15a3d"/>
  <circle cx="256" cy="236" r="92" fill="#fff7ed"/>
  <path fill="#1f2937" d="M256 104c-73 0-132 59-132 132 0 54 33 101 80 121v-58a80 80 0 1 1 104 0v58c47-20 80-67 80-121 0-73-59-132-132-132Z"/>
  <path fill="#0e8f8f" d="M226 282h60v124a30 30 0 0 1-60 0V282Z"/>
  <path fill="#fff7ed" d="M84 250a172 172 0 0 1 344 0h-44a128 128 0 0 0-256 0H84Z"/>
</svg>
